<svg width="19" height="19" viewBox="0 0 19 19" fill="none" xmlns="http://www.w3.org/2000/svg">
<path d="M3.10191 7.59814H2.75035C2.43834 7.59814 2.18785 7.84863 2.18785 8.16064V8.72314C2.18785 9.03516 2.43823 9.28564 2.71871 9.28564H3.28121C3.27242 10.8019 3.08785 12.3137 2.71871 13.7856H7.21871C6.84957 12.3133 6.665 10.8016 6.65621 9.28564H7.18707C7.49908 9.28564 7.74957 9.03516 7.74957 8.72314L7.8125 8.16064C7.8125 7.84863 7.56212 7.59814 7.28164 7.59814H6.93008L8.12117 4.42072C8.11484 4.35674 8.12539 4.26182 8.12539 4.22666C8.12539 3.91025 7.86523 3.66064 7.56289 3.66064H5.5625V2.53564H6.125C6.43592 2.53564 6.6875 2.28407 6.6875 1.97314C6.6875 1.66222 6.43789 1.41064 6.125 1.41064H5.5625L5.56262 0.848145C5.56262 0.537223 5.3109 0.285645 5.00012 0.285645C4.68933 0.285645 4.43762 0.537223 4.43762 0.848145V1.41064H3.87535C3.56443 1.41064 3.31285 1.66222 3.31285 1.97314C3.31285 2.28407 3.56422 2.53564 3.87535 2.53564H4.43785V3.66064H2.43816C2.13934 3.66064 1.87355 3.89971 1.87355 4.21963C1.87355 4.28748 1.88592 4.35551 1.91086 4.42041L3.10191 7.59814ZM12.4496 10.8958L12.3336 13.7856H16.7914L16.6771 10.894L17.5385 10.1646C17.7934 9.9501 17.9375 9.63721 17.9375 9.30322V7.24658C17.9375 7.12705 17.8461 7.03564 17.6949 7.03564H16.7679C16.6492 7.03564 16.5569 7.12793 16.5569 7.24658V8.16064H15.6868V7.24658C15.7191 7.12705 15.6277 7.03564 15.5082 7.03564H13.6186C13.4999 7.03564 13.4076 7.12793 13.4076 7.24658V8.16064H12.5375V7.24658C12.5375 7.12705 12.4461 7.03564 12.3266 7.03564H11.3991C11.2789 7.03564 11.1875 7.12705 11.1875 7.24658V9.30744C11.1875 9.63703 11.3325 9.94904 11.5876 10.1646L12.4496 10.8958ZM14 10.9731C14 10.6603 14.2496 10.4106 14.5625 10.4106C14.8754 10.4106 15.125 10.6603 15.125 10.9731V12.0981H14V10.9731ZM9.18711 16.4435L8.375 16.0356V15.4731C8.375 15.1603 8.12539 14.9106 7.8125 14.9106H2.1875C1.87566 14.9106 1.625 15.1603 1.625 15.4731V16.0356L0.812187 16.4442C0.618652 16.5384 0.5 16.7353 0.5 16.9462V17.7231C0.5 18.036 0.750488 18.2856 1.0625 18.2856H8.9375C9.24951 18.2856 9.5 18.0352 9.5 17.7231V16.9455C9.5 16.7353 9.38047 16.5384 9.18711 16.4435ZM18.1871 16.4435L17.375 16.0356V15.4731C17.375 15.1611 17.1245 14.9106 16.8125 14.9106H12.3125C12.0005 14.9106 11.75 15.1611 11.75 15.4731V16.0356L10.9372 16.4442C10.7445 16.5384 10.625 16.7353 10.625 16.9462V17.7231C10.625 18.0352 10.8755 18.2856 11.1875 18.2856H17.9375C18.2495 18.2856 18.5 18.0352 18.5 17.7231V16.9455C18.5 16.7353 18.3805 16.5384 18.1871 16.4435Z" fill="white" />
</svg>
