<svg width="20" height="20" viewBox="0 0 20 20" fill="none" xmlns="http://www.w3.org/2000/svg">
<path d="M10 1.875C5.51172 1.875 1.875 5.51172 1.875 10.0352C1.875 10.5195 1.45703 10.9727 0.937501 10.9727C0.41797 10.9727 8.28809e-07 10.5195 8.71154e-07 10.0352C1.3571e-06 4.47656 4.47656 -1.3571e-06 10 -8.74228e-07C15.5234 -3.91354e-07 20 4.47656 20 10.0352C20 10.5195 19.5801 10.9727 19.0625 10.9727C18.5449 10.9727 18.125 10.5195 18.125 10.0352C18.125 5.51172 14.4883 1.875 10 1.875ZM9.3125 6.55078C9.49219 6.35937 9.73828 6.25 10 6.25C10.2617 6.25 10.543 6.35937 10.6875 6.55078L14.75 10.9258C15.1016 11.3047 15.1133 11.8984 14.6992 12.25C14.3203 12.6016 13.7266 12.6133 13.375 12.1992L10.9375 9.57422L10.9375 19.0625C10.9375 19.5801 10.5195 20 10 20C9.48047 20 9.0625 19.5801 9.0625 19.0625L9.0625 9.57422L6.625 12.1992C6.27344 12.6133 5.67969 12.6016 5.30078 12.25C4.92188 11.8984 4.89844 11.3047 5.25 10.9258L9.3125 6.55078Z" fill="white"/>
</svg>
