<svg width="17" height="19" viewBox="0 0 17 19" fill="none" xmlns="http://www.w3.org/2000/svg">
<path d="M12.3871 1.97318C11.6478 2.66068 10.9764 3.38389 10.3835 4.11068C9.4085 2.77211 8.19778 1.41068 6.8335 0.142822C3.32457 3.39711 0.833496 7.64282 0.833496 10.2C0.833496 14.7464 4.41207 18.4285 8.8335 18.4285C13.2549 18.4285 16.8335 14.7464 16.8335 10.2C16.8335 8.29997 14.9764 4.37497 12.3871 1.97318ZM8.8335 16.7143C5.36921 16.7143 2.54778 13.79 2.54778 10.2C2.54778 8.57925 4.12814 5.44282 6.83707 2.55354C7.63707 3.38854 8.36921 4.25711 8.99421 5.12139L10.3024 6.92068L11.7089 5.19747C11.9187 4.943 12.1331 4.69318 12.3517 4.44747C14.0085 6.49997 15.1192 9.08568 15.1192 10.2C15.1192 13.7893 12.2978 16.7143 8.8335 16.7143ZM12.0299 8.82497L10.1949 10.9143C10.1949 10.9143 7.32457 7.24997 7.11028 6.99997C5.59064 8.81782 4.8335 9.87854 4.8335 11.0857C4.8335 13.5107 6.66921 15 8.92278 15C9.82457 15 10.6596 14.7187 11.3381 14.2457C12.8739 13.17 13.2353 11.0803 12.3828 9.44925C12.2764 9.24996 12.1585 9.03925 12.0299 8.82497Z" fill="white"/>
</svg>
