<svg width="220" height="166" viewBox="0 0 220 166" fill="none" xmlns="http://www.w3.org/2000/svg">
<g filter="url(#filter0_f_49_186)">
<path fill-rule="evenodd" clip-rule="evenodd" d="M145.248 29.1823L144.763 29C139.952 35.41 136.942 40.5024 134.232 46.8507C134.145 46.8501 134.058 46.8498 133.972 46.8498C124.143 46.8498 115.26 50.8516 108.897 57.2978C98.8496 55.8765 92.2704 55.1686 81.328 54.2417C86.2257 55.2614 107.79 59.6663 133.508 63.6417C140.611 43.8857 145.211 29.2993 145.248 29.1823ZM155.785 33.1469C155.728 33.2518 148.844 45.9354 140.794 64.7392C168.233 68.7664 190.375 70.8483 190.536 70.8634L190.598 70.4616C188.832 70.1284 187.009 69.7723 185.112 69.4018C179.323 68.2715 172.85 67.0075 165.243 65.8517C162.552 60.6044 158.55 56.1256 153.665 52.8365C156.246 41.9197 156.999 33.6038 155.853 33.1723L155.785 33.1469ZM188.496 84.0074C184.366 82.8158 162.663 76.7123 137.507 72.6197C136.339 75.4944 135.163 78.4742 133.994 81.5407C132.107 86.4952 130.329 91.4426 128.682 96.2275C130.026 96.1776 131.384 96.1233 132.754 96.0644C158.461 94.958 179.838 92.5637 179.838 92.5637L180.157 102.805C180.158 102.805 180.159 102.805 180.159 102.805L179.823 92.0099C176.282 91.1651 172.403 90.4531 167.959 90.0021C168.564 87.6211 168.921 85.1422 169 82.5941C175.001 83.3255 180.588 83.8615 188.416 84.5182L188.496 84.0074ZM160.95 103.642C153.023 103.693 143.29 103.867 133.01 104.31C130.589 104.414 128.198 104.53 125.855 104.656C119.927 122.786 116.291 136.821 116.291 136.821L105.753 132.857C105.753 132.857 110.82 121.591 117.551 105.147C114.532 105.342 111.639 105.546 108.914 105.75C109.851 106.698 110.842 107.592 111.882 108.429C111.16 111.246 110.558 113.883 109.957 116.513C108.802 121.57 107.653 126.599 105.674 132.828L116.763 137C118.152 133.656 119.826 130.113 121.662 126.224L121.662 126.224C123.23 122.905 124.916 119.334 126.646 115.422C129.008 115.919 131.459 116.181 133.972 116.181C144.823 116.181 154.522 111.302 160.95 103.642ZM85.5778 96.6203C85.6888 96.6231 100.925 97.0099 121.059 96.4706C122.947 91.7437 124.91 86.7304 126.887 81.5407C128.182 78.1407 129.432 74.8013 130.627 71.557C106.862 68.0144 86.0783 65.8403 80.2183 65.2526C80.2497 65.578 80.2707 65.7593 80.2707 65.7593C84.214 66.5034 88.1943 67.6447 92.558 68.8959C95.0676 69.6155 97.704 70.3714 100.533 71.1091C99.4893 74.3939 98.9266 77.8895 98.9266 81.5152C98.9266 85.5721 99.6312 89.4663 100.926 93.0846C96.7417 93.8407 92.6209 94.8043 87.3395 96.0392L87.3393 96.0393C86.7647 96.1737 86.1763 96.3112 85.5725 96.4521L85.5778 96.6203Z" fill="#E215FA"/>
</g>
<path fill-rule="evenodd" clip-rule="evenodd" d="M145.248 29.1823L144.763 29C139.952 35.41 136.942 40.5024 134.232 46.8507C134.145 46.8501 134.058 46.8498 133.972 46.8498C124.143 46.8498 115.26 50.8516 108.897 57.2978C98.8496 55.8765 92.2704 55.1686 81.328 54.2417C86.2257 55.2614 107.79 59.6663 133.508 63.6417C140.611 43.8857 145.211 29.2993 145.248 29.1823ZM155.785 33.1469C155.728 33.2518 148.844 45.9354 140.794 64.7392C168.233 68.7664 190.375 70.8483 190.536 70.8634L190.598 70.4616C188.832 70.1284 187.009 69.7723 185.112 69.4018C179.323 68.2715 172.85 67.0075 165.243 65.8517C162.552 60.6044 158.55 56.1256 153.665 52.8365C156.246 41.9197 156.999 33.6038 155.853 33.1723L155.785 33.1469ZM188.496 84.0074C184.366 82.8158 162.663 76.7123 137.507 72.6197C136.339 75.4944 135.163 78.4742 133.994 81.5407C132.107 86.4952 130.329 91.4426 128.682 96.2275C130.026 96.1776 131.384 96.1233 132.754 96.0644C158.461 94.958 179.838 92.5637 179.838 92.5637L180.157 102.805C180.158 102.805 180.159 102.805 180.159 102.805L179.823 92.0099C176.282 91.1651 172.403 90.4531 167.959 90.0021C168.564 87.6211 168.921 85.1422 169 82.5941C175.001 83.3255 180.588 83.8615 188.416 84.5182L188.496 84.0074ZM160.95 103.642C153.023 103.693 143.29 103.867 133.01 104.31C130.589 104.414 128.198 104.53 125.855 104.656C119.927 122.786 116.291 136.821 116.291 136.821L105.753 132.857C105.753 132.857 110.82 121.591 117.551 105.147C114.532 105.342 111.639 105.546 108.914 105.75C109.851 106.698 110.842 107.592 111.882 108.429C111.16 111.246 110.558 113.883 109.957 116.513C108.802 121.57 107.653 126.599 105.674 132.828L116.763 137C118.152 133.656 119.826 130.113 121.662 126.224L121.662 126.224C123.23 122.905 124.916 119.334 126.646 115.422C129.008 115.919 131.459 116.181 133.972 116.181C144.823 116.181 154.522 111.302 160.95 103.642ZM85.5778 96.6203C85.6888 96.6231 100.925 97.0099 121.059 96.4706C122.947 91.7437 124.91 86.7304 126.887 81.5407C128.182 78.1407 129.432 74.8013 130.627 71.557C106.862 68.0144 86.0783 65.8403 80.2183 65.2526C80.2497 65.578 80.2707 65.7593 80.2707 65.7593C84.214 66.5034 88.1943 67.6447 92.558 68.8959C95.0676 69.6155 97.704 70.3714 100.533 71.1091C99.4893 74.3939 98.9266 77.8895 98.9266 81.5152C98.9266 85.5721 99.6312 89.4663 100.926 93.0846C96.7417 93.8407 92.6209 94.8043 87.3395 96.0392L87.3393 96.0393C86.7647 96.1737 86.1763 96.3112 85.5725 96.4521L85.5778 96.6203Z" fill="white"/>
<path fill-rule="evenodd" clip-rule="evenodd" d="M89.4518 65.844L78.9648 64.3551L80.8 57.0599C79.138 56.4166 77.3681 56.095 75.4904 56.095C72.866 56.095 70.4274 56.7593 68.1743 58.088C65.9461 59.392 64.1388 61.1636 62.7523 63.4027C61.3658 65.6663 60.6726 68.2007 60.6726 71.0056C60.6726 74.0567 61.3411 76.8124 62.678 79.2729C64.0397 81.7088 66.107 83.7388 68.88 85.3627C69.6475 85.781 70.4397 86.2239 71.2568 86.6914C72.0738 87.1343 72.9156 87.5894 73.7821 88.0569C74.6486 88.5244 75.3914 88.9427 76.0103 89.3118C76.654 89.6563 77.174 89.9515 77.5701 90.1976C79.9964 91.5755 81.2096 93.1871 81.2096 95.0325C81.2096 96.6318 80.6525 98.0466 79.5384 99.2768C78.4243 100.482 77.0749 101.085 75.4904 101.085C73.9306 101.085 72.5937 100.495 71.4796 99.3138C70.3655 98.1081 69.8084 96.681 69.8084 95.0325V91.5632C69.8084 91.2925 69.7094 91.1572 69.5113 91.1572H60.9697C60.7221 91.1572 60.5983 91.2925 60.5983 91.5632V95.0325C60.5983 97.7882 61.2668 100.323 62.6038 102.635C63.9655 104.924 65.7728 106.757 68.0258 108.135C70.3036 109.513 72.7918 110.201 75.4904 110.201C78.2386 110.201 80.7392 109.537 82.9922 108.208C84.2071 107.492 85.2925 106.636 86.2482 105.64L81.4183 105.806L83.8717 97.2719L90.3036 97.0589C90.3809 96.4005 90.4196 95.725 90.4196 95.0325C90.4196 92.0553 89.6769 89.5455 88.1914 87.5033C86.7306 85.4611 84.7376 83.7388 82.2123 82.3363C82.0637 82.2624 81.6304 82.041 80.9125 81.6719C80.1945 81.2782 79.3898 80.8477 78.4985 80.3802C77.632 79.8881 76.8397 79.4452 76.1217 79.0515C75.4038 78.6578 74.9457 78.4118 74.7477 78.3133C72.866 77.3045 71.5662 76.2465 70.8482 75.1393C70.155 74.0321 69.8084 72.6542 69.8084 71.0056C69.8084 69.3817 70.3655 67.9792 71.4796 66.7982C72.5937 65.6171 73.9306 65.0266 75.4904 65.0266C77.0254 65.0266 78.35 65.5802 79.4641 66.6874C80.5782 67.7947 81.1353 69.2341 81.1353 71.0056L81.2096 77.2061C81.2096 77.403 81.3086 77.5014 81.5067 77.5014H90.0482C90.2463 77.5014 90.3454 77.403 90.3454 77.2061V71.0056C90.3454 69.1667 90.0475 67.4461 89.4518 65.844ZM14.0008 109.39L0.371374 109.463C0.123791 109.463 0 109.34 0 109.094L0.148549 57.1653C0.148549 56.9685 0.247582 56.87 0.445648 56.87L14.6693 56.7962C17.4917 56.7224 20.0418 57.3621 22.3195 58.7154C24.6221 60.0687 26.4542 61.9018 27.8159 64.2146C29.2023 66.5029 29.8956 69.0372 29.8956 71.8176V93.5193C29.8956 96.4227 29.19 99.08 27.7787 101.491C26.3428 103.878 24.4364 105.785 22.0596 107.212C19.6828 108.614 16.9965 109.34 14.0008 109.39ZM14.6693 65.8386L9.35861 65.9124L9.28434 100.163H14.0008C15.8824 100.163 17.4669 99.5106 18.7544 98.2065C20.0418 96.9025 20.6855 95.34 20.6855 93.5193V71.7438C20.6855 70.1445 20.0913 68.7543 18.9029 67.5732C17.7145 66.3676 16.3033 65.7894 14.6693 65.8386ZM50.2109 109.463H41.4836C41.3103 109.463 41.2237 109.365 41.2237 109.168L41.2979 87.6879L31.1223 57.1653C31.0728 56.9685 31.1471 56.87 31.3451 56.87H39.8124C40.06 56.87 40.2086 56.9685 40.2581 57.1653L45.8658 77.5014L51.585 57.1653C51.6345 56.9685 51.7583 56.87 51.9564 56.87H60.4979C60.696 56.87 60.7703 56.9685 60.7208 57.1653L50.4337 87.3926L50.508 109.168C50.508 109.365 50.409 109.463 50.2109 109.463Z" fill="white"/>
<path fill-rule="evenodd" clip-rule="evenodd" d="M178.999 109.634H186.612C187.082 109.634 187.317 109.437 187.317 109.043L186.795 83.5086L178.364 81.3037L178.381 92.7751L182.01 92.3954L183.237 103.368H178.396L178.404 109.117C178.404 109.461 178.602 109.634 178.999 109.634ZM178.348 69.7347L178.33 57.6308C178.33 57.2371 178.528 57.0403 178.924 57.0403H185.795L198.644 86.8247L198.273 57.6308C198.273 57.2371 198.496 57.0403 198.941 57.0403H206.48C206.777 57.0403 206.926 57.2371 206.926 57.6308L207 109.191C207 109.486 206.876 109.634 206.629 109.634H199.944L187.676 83.7391L188.144 83.8614L190.597 70.4508L178.348 69.7347Z" fill="white"/>
<defs>
<filter id="filter0_f_49_186" x="51.2183" y="0" width="168.38" height="166" filterUnits="userSpaceOnUse" color-interpolation-filters="sRGB">
<feFlood flood-opacity="0" result="BackgroundImageFix"/>
<feBlend mode="normal" in="SourceGraphic" in2="BackgroundImageFix" result="shape"/>
<feGaussianBlur stdDeviation="14.5" result="effect1_foregroundBlur_49_186"/>
</filter>
</defs>
</svg>
