<svg width="18" height="18" viewBox="0 0 18 18" fill="none" xmlns="http://www.w3.org/2000/svg">
<path d="M9.03441 8.75425V1.33342C9.03441 1.03365 9.23702 0.782715 9.56585 0.782715C13.6745 0.782715 17.0059 4.11415 17.0059 8.22282C17.0059 8.52175 16.7535 8.75425 16.4546 8.75425H9.03441ZM15.3153 7.15995C14.8503 4.78509 13.0036 2.90979 10.6287 2.47335V7.15995H15.3153ZM7.4401 2.4305V10.3486L12.6382 15.5467C12.8607 15.7692 12.8441 16.1346 12.5884 16.3173C11.2864 17.2439 9.69206 17.7887 7.97154 17.7887C3.57059 17.7887 0 14.2214 0 9.81713C0 5.78818 2.99265 2.45475 6.84556 1.92032C7.18103 1.87847 7.4401 2.12326 7.4401 2.4305ZM5.8458 11.0095V3.80227C3.36797 4.6788 1.59431 7.04037 1.59431 9.81713C1.59431 13.3379 4.42088 16.1944 7.97154 16.1944C8.87498 16.1944 9.70203 16.0084 10.5091 15.6696L5.8458 11.0095ZM17.4842 10.3486C17.7898 10.3486 18.0356 10.6076 17.9957 10.9132C17.74 12.7699 16.8432 14.4207 15.5412 15.6397C15.3419 15.7991 15.0297 15.8124 14.837 15.6197L9.56585 10.3486H17.4842Z" fill="white"/>
</svg>
