<svg width="20" height="20" viewBox="0 0 20 20" fill="none" xmlns="http://www.w3.org/2000/svg">
<path d="M9.375 13.75V10.625H6.25C5.90625 10.625 5.625 10.3438 5.625 10C5.625 9.65625 5.90625 9.375 6.25 9.375H9.375V6.25C9.375 5.90625 9.65625 5.625 10 5.625C10.3438 5.625 10.625 5.90625 10.625 6.25V9.375H13.75C14.0938 9.375 14.375 9.65625 14.375 10C14.375 10.3438 14.0938 10.625 13.75 10.625H10.625V13.75C10.625 14.0938 10.3438 14.375 10 14.375C9.65625 14.375 9.375 14.0938 9.375 13.75ZM20 10C20 15.5234 15.5234 20 10 20C4.47656 20 0 15.5234 0 10C0 4.47656 4.47656 0 10 0C15.5234 0 20 4.47656 20 10ZM10 1.25C5.16797 1.25 1.25 5.16797 1.25 10C1.25 14.832 5.16797 18.75 10 18.75C14.832 18.75 18.75 14.832 18.75 10C18.75 5.16797 14.832 1.25 10 1.25Z" fill="white"/>
</svg>
