<svg width="50" height="46" viewBox="0 0 50 46" fill="none" xmlns="http://www.w3.org/2000/svg">
<path d="M13.8889 21.6112C13.8889 18.5469 16.3802 16.0556 19.4444 16.0556C22.5087 16.0556 25 18.5469 25 21.6112C25 24.6754 22.5087 27.1667 19.4444 27.1667C16.3802 27.1667 13.8889 24.6754 13.8889 21.6112ZM19.4444 24.3889C20.9809 24.3889 22.2222 23.1476 22.2222 21.6112C22.2222 20.0747 20.9809 18.8334 19.4444 18.8334C17.908 18.8334 16.6667 20.0747 16.6667 21.6112C16.6667 23.1476 17.908 24.3889 19.4444 24.3889ZM33.3333 21.6112C33.3333 29.2848 27.1181 35.5001 19.4444 35.5001C11.7708 35.5001 5.55556 29.2848 5.55556 21.6112C5.55556 13.9376 11.7708 7.72228 19.4444 7.72228C27.1181 7.72228 33.3333 13.9376 33.3333 21.6112ZM19.4444 10.5001C13.3073 10.5001 8.33333 15.474 8.33333 21.6112C8.33333 27.7483 13.3073 32.7223 19.4444 32.7223C25.5816 32.7223 30.5556 27.7483 30.5556 21.6112C30.5556 15.474 25.5816 10.5001 19.4444 10.5001ZM44.4444 16.0556C44.4444 17.8698 43.2812 19.415 41.6667 19.9879V29.9445C41.6667 30.7084 41.0417 31.3334 40.2778 31.3334C39.5139 31.3334 38.8889 30.7084 38.8889 29.9445V19.9879C37.2743 19.415 36.1111 17.8698 36.1111 16.0556C36.1111 13.7553 37.9774 11.8889 40.2778 11.8889C42.5781 11.8889 44.4444 13.7553 44.4444 16.0556ZM40.2778 14.6667C39.5139 14.6667 38.8889 15.2917 38.8889 16.0556C38.8889 16.8195 39.5139 17.4445 40.2778 17.4445C41.0417 17.4445 41.6667 16.8195 41.6667 16.0556C41.6667 15.2917 41.0417 14.6667 40.2778 14.6667ZM0 6.33339C0 3.26481 2.48698 0.777832 5.55556 0.777832H44.4444C47.5087 0.777832 50 3.26481 50 6.33339V36.8889C50 39.9532 47.5087 42.4445 44.4444 42.4445V43.8334C44.4444 44.5973 43.8194 45.2223 43.0556 45.2223C42.2917 45.2223 41.6667 44.5973 41.6667 43.8334V42.4445H8.33333V43.8334C8.33333 44.5973 7.71181 45.2223 6.94444 45.2223C6.17708 45.2223 5.55556 44.5973 5.55556 43.8334V42.4445C2.48698 42.4445 0 39.9532 0 36.8889V6.33339ZM2.77778 6.33339V36.8889C2.77778 38.4254 4.0217 39.6667 5.55556 39.6667H44.4444C45.9809 39.6667 47.2222 38.4254 47.2222 36.8889V6.33339C47.2222 4.79953 45.9809 3.55561 44.4444 3.55561H5.55556C4.0217 3.55561 2.77778 4.79953 2.77778 6.33339Z" fill="#ffffff"/>
</svg>
