<svg width="16" height="15" viewBox="0 0 16 15" fill="none" xmlns="http://www.w3.org/2000/svg">
<path d="M15.693 12.0775L9.0865 0.8035C8.83253 0.369884 8.38652 0.153076 7.94052 0.153076C7.49451 0.153076 7.04851 0.369884 6.76666 0.8035L0.163306 12.0775C-0.316459 12.9416 0.316651 14.0288 1.33531 14.0288H14.5482C15.5629 14.0288 16.1978 12.9447 15.693 12.0775ZM1.64008 12.5421L7.91264 1.78843L14.2403 12.5421H1.64008ZM7.94052 9.60281C7.40283 9.60281 6.96674 10.0389 6.96674 10.5766C6.96674 11.1143 7.40376 11.5504 7.94176 11.5504C8.47975 11.5504 8.9143 11.1143 8.9143 10.5766C8.91306 10.0395 8.47944 9.60281 7.94052 9.60281ZM7.19718 4.86091V7.83427C7.19718 8.24621 7.53168 8.57761 7.94052 8.57761C8.34936 8.57761 8.68386 8.24466 8.68386 7.83427V4.86091C8.68386 4.45207 8.35245 4.11756 7.94052 4.11756C7.52858 4.11756 7.19718 4.45207 7.19718 4.86091Z" fill="#B94141"/>
</svg>
