<svg width="20" height="20" viewBox="0 0 20 20" fill="none" xmlns="http://www.w3.org/2000/svg">
<path d="M10 18.125C14.4883 18.125 18.125 14.4883 18.125 9.96484C18.125 9.48047 18.543 9.02734 19.0625 9.02734C19.582 9.02734 20 9.48047 20 9.96484C20 15.5234 15.5234 20 10 20C4.47656 20 0 15.5234 0 9.96484C0 9.48047 0.419922 9.02734 0.9375 9.02734C1.45508 9.02734 1.875 9.48047 1.875 9.96484C1.875 14.4883 5.51172 18.125 10 18.125ZM10.6875 13.4492C10.5078 13.6406 10.2617 13.75 10 13.75C9.73828 13.75 9.45703 13.6406 9.3125 13.4492L5.25 9.07422C4.89844 8.69531 4.88672 8.10156 5.30078 7.75C5.67969 7.39844 6.27344 7.38672 6.625 7.80078L9.0625 10.4258V0.9375C9.0625 0.419922 9.48047 0 10 0C10.5195 0 10.9375 0.419922 10.9375 0.9375V10.4258L13.375 7.80078C13.7266 7.38672 14.3203 7.39844 14.6992 7.75C15.0781 8.10156 15.1016 8.69531 14.75 9.07422L10.6875 13.4492Z" fill="white"/>
</svg>
